<?xml version="1.0" encoding="utf-8"?>
<!-- Generator: Adobe Illustrator 15.0.0, SVG Export Plug-In . SVG Version: 6.00 Build 0)  -->
<!DOCTYPE svg PUBLIC "-//W3C//DTD SVG 1.1//EN" "http://www.w3.org/Graphics/SVG/1.1/DTD/svg11.dtd">
<svg version="1.1" id="Laag_1" xmlns="http://www.w3.org/2000/svg" xmlns:xlink="http://www.w3.org/1999/xlink" x="0px" y="0px"
	 width="50px" height="50px" viewBox="0 0 50 50" enable-background="new 0 0 50 50" xml:space="preserve">
<g id="Portugal">
	<circle id="circle50_160_" fill="#FF0000" cx="25" cy="25" r="24.495"/>
	<path id="circle50_159_" fill="#006600" d="M23.413,49.443C10.623,48.624,0.505,37.997,0.505,25
		c0-12.984,10.102-23.608,22.872-24.44L23.413,49.443z"/>
	<path fill="#FFFF00" stroke="#000000" stroke-width="0.0983" stroke-linecap="round" stroke-linejoin="round" d="M36.873,35.621
		c-5.188-0.156-28.965-15-29.128-17.363l1.311-2.188c2.36,3.426,26.67,17.862,29.057,17.351L36.873,35.621"/>
	<path fill="#FFFF00" stroke="#000000" stroke-width="0.0983" stroke-linecap="round" stroke-linejoin="round" d="M8.781,15.77
		c-0.465,1.254,6.205,5.374,14.23,10.257c8.026,4.881,14.943,7.896,15.457,7.464c0.032-0.054,0.255-0.437,0.233-0.435
		c-0.096,0.145-0.329,0.188-0.695,0.086c-2.169-0.627-7.824-3.222-14.825-7.467c-7.004-4.248-13.099-8.161-14.044-9.826
		c-0.065-0.115-0.113-0.325-0.104-0.488H9.012l-0.201,0.354L8.781,15.77L8.781,15.77L8.781,15.77z M36.992,35.688
		c-0.088,0.16-0.25,0.166-0.563,0.131c-1.941-0.213-7.826-3.073-14.791-7.242c-8.104-4.854-14.797-9.274-14.071-10.43l0.199-0.348
		l0.038,0.01C7.151,19.766,21.013,27.691,21.829,28.2c8.019,4.969,14.78,7.868,15.379,7.114L36.992,35.688L36.992,35.688
		L36.992,35.688z"/>
	<path fill="#FFFF00" stroke="#000000" stroke-width="0.0983" stroke-linecap="round" stroke-linejoin="round" d="M23.471,19.689
		c5.19-0.041,11.597-0.708,15.282-2.179l-0.794-1.291c-2.18,1.209-8.62,1.999-14.531,2.117c-6.991-0.063-11.929-0.714-14.4-2.373
		l-0.75,1.372C12.822,19.262,17.48,19.671,23.471,19.689"/>
	<path fill="#FFFF00" stroke="#000000" stroke-width="0.0983" stroke-linecap="round" stroke-linejoin="round" d="M38.967,17.54
		c-0.128,0.201-2.531,1.033-6.072,1.646c-2.401,0.363-5.533,0.676-9.44,0.683c-3.714,0.003-6.749-0.262-9.045-0.574
		c-3.716-0.584-5.635-1.394-6.344-1.681c0.066-0.138,0.109-0.229,0.175-0.357c2.041,0.813,3.971,1.305,6.226,1.652
		c2.282,0.31,5.279,0.577,8.976,0.574c3.891-0.003,6.986-0.342,9.375-0.695c3.633-0.587,5.613-1.34,5.891-1.69L38.967,17.54
		L38.967,17.54L38.967,17.54z M38.271,16.232c-0.394,0.315-2.354,1.011-5.808,1.563c-2.303,0.328-5.229,0.625-8.972,0.628
		c-3.554,0.004-6.459-0.235-8.666-0.558c-3.505-0.456-5.369-1.282-6.041-1.524c0.067-0.115,0.136-0.229,0.204-0.345
		c0.521,0.265,2.322,0.992,5.877,1.499c2.182,0.307,5.089,0.539,8.626,0.536c3.724-0.003,6.619-0.307,8.906-0.635
		c3.469-0.479,5.336-1.365,5.617-1.589L38.271,16.232L38.271,16.232L38.271,16.232z"/>
	<path fill="#FFFF00" stroke="#000000" stroke-width="0.0983" stroke-linecap="round" stroke-linejoin="round" d="M6.428,25.943
		c3.192,1.717,10.283,2.58,16.993,2.642c6.108,0.011,14.069-0.944,17.045-2.522l-0.079-1.72c-0.936,1.458-9.464,2.853-17.032,2.794
		c-7.568-0.054-14.599-1.225-16.941-2.739L6.428,25.943"/>
	<path fill="#FFFF00" stroke="#000000" stroke-width="0.0983" stroke-linecap="round" stroke-linejoin="round" d="M40.628,25.695
		v0.41c-0.446,0.533-3.251,1.344-6.771,1.914c-2.676,0.408-6.166,0.719-10.516,0.719c-4.132,0-7.427-0.295-9.982-0.687
		c-4.038-0.591-6.622-1.62-7.142-1.927l0.002-0.479c1.56,1.035,5.779,1.791,7.195,2.024c2.539,0.39,5.814,0.681,9.926,0.681
		c4.328,0,7.798-0.308,10.458-0.716C36.326,27.273,39.92,26.327,40.628,25.695L40.628,25.695L40.628,25.695z M40.63,24.237v0.412
		c-0.444,0.532-3.252,1.343-6.771,1.91c-2.678,0.412-6.166,0.721-10.515,0.721c-4.132,0-7.425-0.297-9.983-0.688
		c-4.037-0.587-6.621-1.614-7.141-1.927l0.003-0.476c1.558,1.034,5.777,1.793,7.194,2.022c2.54,0.393,5.815,0.686,9.925,0.686
		c4.327,0,7.797-0.31,10.457-0.717C36.326,25.816,39.92,24.869,40.63,24.237L40.63,24.237L40.63,24.237z"/>
	<path fill="#FFFF00" stroke="#000000" stroke-width="0.0983" stroke-linecap="round" stroke-linejoin="round" d="M23.405,35.324
		c-7.341-0.045-13.632-2-14.962-2.322l0.968,1.516c2.347,0.985,8.484,2.457,14.064,2.293c5.578-0.162,10.455-0.593,13.892-2.268
		l0.992-1.572C36.02,34.074,28.051,35.314,23.405,35.324"/>
	<path fill="#FFFF00" stroke="#000000" stroke-width="0.0944" stroke-linecap="round" stroke-linejoin="round" d="M37.742,34.191
		c-0.146,0.224-0.297,0.443-0.447,0.656c-1.62,0.571-4.175,1.174-5.251,1.348c-2.202,0.451-5.608,0.787-8.631,0.791
		c-6.502-0.096-11.828-1.368-14.332-2.457l-0.2-0.348l0.033-0.051l0.341,0.13c4.454,1.599,9.459,2.229,14.195,2.345
		c3.012,0.014,6.024-0.345,8.463-0.78c3.735-0.75,5.248-1.312,5.711-1.566L37.742,34.191L37.742,34.191L37.742,34.191z
		 M38.604,32.771c0.004,0.004,0.01,0.008,0.014,0.011c-0.11,0.185-0.225,0.372-0.34,0.563c-0.863,0.307-3.209,0.992-6.635,1.471
		c-2.256,0.311-3.66,0.605-8.15,0.695c-8.414-0.217-13.861-1.863-15.153-2.268l-0.194-0.367c4.877,1.271,9.858,2.162,15.35,2.252
		c4.108-0.086,5.854-0.391,8.093-0.695c3.995-0.621,6.01-1.279,6.612-1.468c-0.009-0.013-0.017-0.021-0.027-0.034l0.435-0.166
		L38.604,32.771L38.604,32.771z"/>
	<path fill="#FFFF00" stroke="#000000" stroke-width="0.0983" stroke-linecap="round" stroke-linejoin="round" d="M23.383,8.048
		C14.028,8.048,6.4,15.661,6.4,24.99c0,9.333,7.628,16.945,16.982,16.945c9.353,0,17.045-7.612,17.045-16.945
		C40.426,15.661,32.732,8.048,23.383,8.048z M34.253,35.662c-2.815,2.708-6.552,4.445-10.913,4.525
		c-4.869,0.092-9.462-3.084-10.692-4.48c-2.408-2.725-4.37-6.188-4.434-10.854c0.3-5.272,2.37-8.943,5.368-11.463
		c3.001-2.517,6.994-3.745,10.32-3.655c3.838,0.102,8.323,1.983,11.418,5.722c2.029,2.449,2.908,5.106,3.369,9.132
		C38.715,29.417,36.243,33.749,34.253,35.662z"/>
	<path fill="#FFFF00" stroke="#000000" stroke-width="0.0983" stroke-linecap="round" stroke-linejoin="round" d="M23.426,7.99
		c9.363,0,16.997,7.636,16.997,17c0,9.357-7.638,16.996-16.997,16.996c-9.359,0-16.995-7.637-16.995-16.996
		C6.431,15.626,14.066,7.99,23.426,7.99L23.426,7.99z M6.806,24.99c0,9.142,7.507,16.624,16.62,16.624
		c9.115,0,16.625-7.482,16.625-16.624c0-9.147-7.51-16.626-16.625-16.626C14.313,8.364,6.806,15.847,6.806,24.99L6.806,24.99z"/>
	<path fill="#FFFF00" stroke="#000000" stroke-width="0.0983" stroke-linecap="round" stroke-linejoin="round" d="M23.44,9.403
		c8.539,0,15.569,7.008,15.569,15.571c0,8.561-7.032,15.567-15.569,15.567c-8.537,0-15.567-7.007-15.567-15.567
		C7.873,16.411,14.903,9.403,23.44,9.403L23.44,9.403z M8.246,24.975c0,8.353,6.863,15.194,15.194,15.194
		c8.332,0,15.194-6.842,15.194-15.194c0-8.359-6.862-15.198-15.194-15.198C15.109,9.776,8.246,16.615,8.246,24.975L8.246,24.975z"/>
	<path fill="#FFFF00" stroke="#000000" stroke-width="0.0983" stroke-linecap="round" stroke-linejoin="round" d="M24.126,7.924
		h-1.457l0.001,34.152h1.463L24.126,7.924z"/>
	<path fill="#FFFF00" stroke="#000000" stroke-width="0.0983" stroke-linecap="round" stroke-linejoin="round" d="M23.982,7.729
		h0.37l0.003,34.544h-0.373V7.729L23.982,7.729z M22.533,7.729h0.375v34.544h-0.374L22.533,7.729L22.533,7.729z"/>
	<path fill="#FFFF00" stroke="#000000" stroke-width="0.0983" stroke-linecap="round" stroke-linejoin="round" d="M40.434,25.646
		v-1.263l-1.027-0.957L33.57,21.88l-8.41-0.854l-10.128,0.513l-7.21,1.716l-1.454,1.078v1.265l3.688-1.656l8.755-1.375h8.41
		l6.178,0.686l4.293,1.033L40.434,25.646z"/>
	<path fill="#FFFF00" stroke="#000000" stroke-width="0.0983" stroke-linecap="round" stroke-linejoin="round" d="M23.433,22.355
		c4.016-0.006,7.911,0.383,10.999,0.986c3.187,0.638,5.428,1.432,6.196,2.328l-0.001,0.442c-0.924-1.112-3.941-1.929-6.268-2.397
		c-3.066-0.597-6.935-0.979-10.927-0.973c-4.212,0.006-8.132,0.408-11.155,0.995c-2.424,0.481-5.656,1.438-6.059,2.375v-0.459
		c0.222-0.65,2.628-1.626,6.008-2.303C15.268,22.758,19.197,22.362,23.433,22.355L23.433,22.355z M23.438,20.898
		c4.012-0.007,7.906,0.38,10.996,0.982c3.188,0.641,5.43,1.436,6.196,2.331l-0.002,0.443c-0.921-1.113-3.94-1.93-6.267-2.398
		c-3.067-0.597-6.936-0.982-10.924-0.976c-4.214,0.01-8.116,0.408-11.138,0.998c-2.341,0.443-5.703,1.436-6.079,2.38v-0.463
		c0.223-0.645,2.679-1.655,6.006-2.303C15.269,21.3,19.198,20.908,23.438,20.898L23.438,20.898z"/>
	<path fill="#FFFF00" stroke="#000000" stroke-width="0.0983" stroke-linecap="round" stroke-linejoin="round" d="M23.353,13.461
		c6.327-0.029,11.842,0.887,14.368,2.178l0.918,1.595c-2.19-1.183-8.145-2.414-15.276-2.229c-5.812,0.039-12.02,0.645-15.136,2.303
		l1.099-1.837C11.882,14.144,17.911,13.47,23.353,13.461"/>
	<path fill="#FFFF00" stroke="#000000" stroke-width="0.0983" stroke-linecap="round" stroke-linejoin="round" d="M23.438,14.777
		c3.607-0.009,7.093,0.195,9.864,0.695c2.582,0.479,5.046,1.203,5.4,1.589l0.271,0.481c-0.855-0.558-2.984-1.18-5.722-1.7
		c-2.749-0.514-6.231-0.686-9.818-0.676c-4.075-0.016-7.237,0.201-9.953,0.673c-2.87,0.539-4.863,1.308-5.354,1.671l0.268-0.513
		c0.955-0.485,2.469-1.072,5.017-1.531C16.216,14.953,19.414,14.8,23.438,14.777L23.438,14.777L23.438,14.777z M23.438,13.32
		c3.451-0.01,6.86,0.185,9.517,0.66c2.096,0.408,4.169,1.046,4.928,1.614l0.399,0.631c-0.681-0.753-3.232-1.467-5.488-1.869
		c-2.636-0.452-5.903-0.635-9.355-0.663c-3.624,0.01-6.971,0.232-9.572,0.705c-2.478,0.472-4.079,1.03-4.754,1.467l0.352-0.529
		c0.933-0.491,2.442-0.944,4.344-1.311C16.422,13.55,19.792,13.333,23.438,13.32L23.438,13.32z"/>
	<path fill="#FFFF00" stroke="#000000" stroke-width="0.0983" stroke-linecap="round" stroke-linejoin="round" d="M31.88,32.052
		c-3.126-0.579-6.261-0.666-8.447-0.641c-10.543,0.124-13.948,2.162-14.365,2.78l-0.787-1.285c2.684-1.942,8.423-3.033,15.207-2.926
		c3.521,0.059,6.561,0.297,9.118,0.789L31.88,32.052"/>
	<path fill="#FFFF00" stroke="#000000" stroke-width="0.0944" stroke-linecap="round" stroke-linejoin="round" d="M23.37,31.229
		c2.935,0.043,5.812,0.166,8.589,0.684l-0.2,0.354c-2.581-0.472-5.333-0.656-8.379-0.642c-3.888-0.031-7.824,0.332-11.249,1.317
		c-1.082,0.3-2.871,0.992-3.055,1.568l-0.199-0.33c0.058-0.339,1.139-1.043,3.161-1.611C15.961,31.445,19.632,31.255,23.37,31.229
		L23.37,31.229L23.37,31.229z M23.504,29.756c3.036,0.055,6.176,0.194,9.225,0.801l-0.209,0.369
		c-2.758-0.549-5.386-0.73-8.999-0.781c-3.902,0.008-8.044,0.285-11.807,1.379c-1.215,0.354-3.312,1.119-3.382,1.726l-0.201-0.354
		c0.046-0.552,1.862-1.27,3.496-1.744C15.419,30.046,19.571,29.762,23.504,29.756L23.504,29.756z"/>
	<path fill="#FFFF00" stroke="#000000" stroke-width="0.0983" stroke-linecap="round" stroke-linejoin="round" d="M38.477,33.104
		l-1.268,1.965l-3.639-3.23l-9.441-6.35l-10.643-5.837L7.96,17.763l1.179-2.185l0.398-0.22l3.436,0.857l11.329,5.837l6.523,4.118
		l5.491,3.948l2.231,2.573L38.477,33.104z"/>
	<path fill="#FFFF00" stroke="#000000" stroke-width="0.0983" stroke-linecap="round" stroke-linejoin="round" d="M7.763,17.811
		c0.968-0.656,8.092,2.514,15.544,7.008c7.431,4.51,14.534,9.6,13.893,10.554l-0.21,0.332l-0.098,0.076
		c0.021-0.016,0.129-0.146-0.012-0.502c-0.316-1.038-5.354-5.062-13.712-10.106c-8.152-4.86-14.94-7.788-15.62-6.953L7.763,17.811
		L7.763,17.811L7.763,17.811z M38.734,33.075c0.613-1.208-5.992-6.188-14.185-11.032c-8.379-4.749-14.418-7.543-15.521-6.71
		l-0.245,0.446c-0.004,0.025,0.008-0.032,0.061-0.073c0.2-0.172,0.532-0.163,0.683-0.166c1.899,0.028,7.322,2.526,14.936,6.89
		c3.333,1.942,14.088,8.837,14.048,10.78c0.004,0.166,0.014,0.2-0.049,0.283L38.734,33.075L38.734,33.075L38.734,33.075z"/>
	<path fill="#FFFFFF" stroke="#000000" stroke-width="0.1151" d="M13.247,26.859c0,2.793,1.142,5.32,2.995,7.166
		c1.857,1.851,4.38,3.018,7.178,3.018c2.813,0,5.362-1.143,7.211-2.984c1.85-1.844,2.995-4.386,2.995-7.187l0,0V13.275L13.244,13.25
		L13.247,26.859L13.247,26.859L13.247,26.859z"/>
	<path fill="#FF0000" stroke="#000000" stroke-width="0.087" d="M13.626,26.882v0.007c0,2.67,1.107,5.101,2.881,6.866
		c1.776,1.771,4.226,2.867,6.905,2.867c2.688,0,5.135-1.091,6.904-2.853c1.771-1.764,2.863-4.192,2.863-6.873l0,0V13.709
		l-19.542-0.003L13.626,26.882 M29.252,17.654v8.392l-0.007,0.888l0,0c0,0.235-0.017,0.504-0.041,0.728
		c-0.16,1.33-0.772,2.483-1.672,3.384c-1.06,1.053-2.52,1.706-4.127,1.706c-1.602,0-3.03-0.676-4.092-1.733
		c-1.088-1.086-1.723-2.572-1.723-4.111v-9.272L29.252,17.654L29.252,17.654L29.252,17.654z"/>
	<g id="castle">
		<path fill="#FFFF00" d="M14.893,17.15c0.022-0.95,0.695-1.177,0.7-1.18c0.005-0.003,0.726,0.242,0.726,1.187L14.893,17.15"/>
		<path fill="#FFFF00" stroke="#000000" stroke-width="0.0859" d="M14.311,15.993l-0.116,1.088l0.711,0.003
			c0.007-0.903,0.683-1.053,0.697-1.05c0.018-0.003,0.686,0.198,0.703,1.05h0.714l-0.129-1.098L14.311,15.993L14.311,15.993
			L14.311,15.993z"/>
		<path fill="#FFFF00" stroke="#000000" stroke-width="0.0859" d="M14.147,17.087h2.907c0.064,0,0.112,0.061,0.112,0.134
			c0,0.073-0.048,0.134-0.112,0.134h-2.907c-0.061,0-0.111-0.061-0.111-0.134C14.036,17.148,14.087,17.087,14.147,17.087z"/>
		<path fill="#FFFF00" stroke="#000000" stroke-width="0.0859" d="M15.205,17.081c0.003-0.571,0.39-0.73,0.391-0.73
			c0,0,0.402,0.165,0.405,0.73H15.205"/>
		<path fill="#FFFF00" stroke="#000000" stroke-width="0.0859" d="M14.207,15.54h2.791c0.057,0,0.106,0.055,0.106,0.121
			c0,0.063-0.05,0.118-0.106,0.118h-2.791c-0.058,0-0.105-0.051-0.105-0.118C14.102,15.595,14.149,15.54,14.207,15.54z"/>
		<path fill="#FFFF00" stroke="#000000" stroke-width="0.0859" d="M14.268,15.782h2.666c0.058,0,0.103,0.055,0.103,0.118
			c0,0.067-0.045,0.121-0.103,0.121h-2.666c-0.058,0-0.103-0.054-0.103-0.121C14.165,15.837,14.21,15.782,14.268,15.782z"/>
		<path fill="#FFFF00" stroke="#000000" stroke-width="0.0859" d="M15.129,13.965h0.21v0.149h0.153v-0.153h0.217v0.153h0.153v-0.153
			h0.215v0.345c0,0.058-0.043,0.093-0.094,0.093h-0.756c-0.051,0-0.099-0.042-0.101-0.093v-0.341H15.129L15.129,13.965z"/>
		<path fill="#FFFF00" stroke="#000000" stroke-width="0.0859" d="M15.923,14.427l0.048,1.107l-0.74-0.004l0.048-1.106
			L15.923,14.427"/>
		<path id="cp1" fill="#FFFF00" stroke="#000000" stroke-width="0.0859" d="M15.021,14.94l0.022,0.597h-0.709l0.021-0.597H15.021
			L15.021,14.94L15.021,14.94z"/>
		<g>
			<path id="cp1_1_" fill="#FFFF00" stroke="#000000" stroke-width="0.0859" d="M16.842,14.94l0.021,0.597h-0.708l0.02-0.597H16.842
				L16.842,14.94L16.842,14.94z"/>
		</g>
		<path id="cp2" fill="#FFFF00" stroke="#000000" stroke-width="0.0859" d="M14.225,14.507h0.205v0.149h0.15v-0.152l0.211,0.003
			v0.149h0.152v-0.152h0.211v0.348c0,0.051-0.043,0.089-0.093,0.089h-0.74c-0.051,0-0.097-0.041-0.097-0.093L14.225,14.507
			L14.225,14.507L14.225,14.507z"/>
		<g>
			<path id="cp2_1_" fill="#FFFF00" stroke="#000000" stroke-width="0.0859" d="M16.044,14.507h0.207v0.149h0.15v-0.152l0.21,0.003
				v0.149h0.15v-0.152h0.21v0.348c0,0.051-0.041,0.089-0.092,0.089h-0.74c-0.051,0-0.096-0.041-0.096-0.093L16.044,14.507
				L16.044,14.507L16.044,14.507z"/>
		</g>
		<path d="M15.529,14.777c-0.004-0.108,0.151-0.108,0.147,0v0.262h-0.147V14.777"/>
		<path id="cp3" d="M14.615,15.157c0-0.102,0.141-0.105,0.141,0v0.204h-0.141V15.157"/>
		<g>
			<path id="cp3_1_" d="M16.439,15.157c0-0.102,0.144-0.105,0.144,0v0.204h-0.144V15.157"/>
		</g>
	</g>
	<g>
		<g id="castle_1_">
			<path fill="#FFFF00" d="M14.893,25.099c0.022-0.947,0.695-1.17,0.7-1.174c0.005-0.006,0.726,0.239,0.726,1.184L14.893,25.099"/>
			<path fill="#FFFF00" stroke="#000000" stroke-width="0.0859" d="M14.311,23.944l-0.116,1.088l0.711,0.003
				c0.007-0.902,0.683-1.053,0.697-1.05c0.018-0.003,0.686,0.198,0.703,1.05h0.714l-0.129-1.101L14.311,23.944L14.311,23.944
				L14.311,23.944z"/>
			<path fill="#FFFF00" stroke="#000000" stroke-width="0.0859" d="M14.147,25.035h2.907c0.064,0,0.112,0.061,0.112,0.137
				c0,0.073-0.048,0.134-0.112,0.134h-2.907c-0.061,0-0.111-0.061-0.111-0.134C14.035,25.096,14.087,25.035,14.147,25.035z"/>
			<path fill="#FFFF00" stroke="#000000" stroke-width="0.0859" d="M15.205,25.028c0.003-0.567,0.39-0.727,0.391-0.727
				c0,0,0.402,0.166,0.405,0.727H15.205"/>
			<path fill="#FFFF00" stroke="#000000" stroke-width="0.0859" d="M14.207,23.491h2.791c0.057,0,0.106,0.055,0.106,0.121
				c0,0.064-0.05,0.118-0.106,0.118h-2.791c-0.058,0-0.105-0.051-0.105-0.118C14.102,23.546,14.149,23.491,14.207,23.491z"/>
			<path fill="#FFFF00" stroke="#000000" stroke-width="0.0859" d="M14.268,23.73h2.666c0.058,0,0.103,0.058,0.103,0.121
				c0,0.067-0.045,0.121-0.103,0.121h-2.666c-0.058,0-0.103-0.054-0.103-0.121C14.165,23.788,14.21,23.73,14.268,23.73z"/>
			<path fill="#FFFF00" stroke="#000000" stroke-width="0.0859" d="M15.129,21.916h0.21v0.149h0.153v-0.152h0.217v0.152h0.153
				v-0.152h0.215v0.344c0,0.055-0.043,0.09-0.094,0.09h-0.756c-0.051,0-0.099-0.039-0.101-0.09v-0.341H15.129L15.129,21.916z"/>
			<path fill="#FFFF00" stroke="#000000" stroke-width="0.0859" d="M15.923,22.375l0.048,1.11l-0.74-0.004l0.048-1.109
				L15.923,22.375"/>
			<path id="cp1_2_" fill="#FFFF00" stroke="#000000" stroke-width="0.0859" d="M15.021,22.892l0.022,0.597h-0.709l0.021-0.597
				H15.021L15.021,22.892L15.021,22.892z"/>
			<g>
				<path id="cp1_3_" fill="#FFFF00" stroke="#000000" stroke-width="0.0859" d="M16.842,22.892l0.021,0.597h-0.708l0.02-0.597
					H16.842L16.842,22.892L16.842,22.892z"/>
			</g>
			<path id="cp2_2_" fill="#FFFF00" stroke="#000000" stroke-width="0.0859" d="M14.225,22.458h0.205v0.149h0.15v-0.152h0.211v0.152
				h0.152v-0.152h0.211v0.344c0,0.058-0.043,0.09-0.093,0.09h-0.74c-0.051,0-0.097-0.038-0.097-0.09L14.225,22.458L14.225,22.458
				L14.225,22.458z"/>
			<g>
				<path id="cp2_3_" fill="#FFFF00" stroke="#000000" stroke-width="0.0859" d="M16.044,22.458h0.207v0.149h0.15v-0.152h0.21v0.152
					h0.15v-0.152h0.21v0.344c0,0.058-0.041,0.09-0.092,0.09h-0.74c-0.051,0-0.096-0.038-0.096-0.09L16.044,22.458L16.044,22.458
					L16.044,22.458z"/>
			</g>
			<path d="M15.529,22.729c-0.004-0.108,0.151-0.112,0.147,0v0.261h-0.147V22.729"/>
			<path id="cp3_2_" d="M14.615,23.108c0-0.102,0.141-0.105,0.141,0v0.204h-0.141V23.108"/>
			<g>
				<path id="cp3_3_" d="M16.439,23.108c0-0.102,0.144-0.105,0.144,0v0.204h-0.144V23.108"/>
			</g>
		</g>
		<g id="castle3">
			<g id="castle_2_">
				<path fill="#FFFF00" d="M17.993,33.376c-0.657-0.683-0.342-1.321-0.339-1.324c0-0.006,0.68-0.348,1.35,0.319L17.993,33.376"/>
				<path fill="#FFFF00" stroke="#000000" stroke-width="0.0859" d="M16.762,32.975l0.692,0.852l0.5-0.508
					c-0.635-0.642-0.265-1.225-0.252-1.233c0.01-0.01,0.624-0.345,1.238,0.239l0.504-0.508l-0.869-0.683L16.762,32.975
					L16.762,32.975L16.762,32.975z"/>
				<path fill="#FFFF00" stroke="#000000" stroke-width="0.0859" d="M17.424,33.859l2.049-2.063
					c0.045-0.045,0.121-0.038,0.172,0.014c0.055,0.054,0.061,0.131,0.02,0.176l-2.051,2.063c-0.043,0.044-0.121,0.038-0.174-0.013
					C17.387,33.98,17.381,33.904,17.424,33.859z"/>
				<path fill="#FFFF00" stroke="#000000" stroke-width="0.0859" d="M18.163,33.104c-0.401-0.401-0.244-0.785-0.242-0.787
					c0,0,0.402-0.17,0.804,0.227L18.163,33.104"/>
				<path fill="#FFFF00" stroke="#000000" stroke-width="0.0859" d="M16.369,32.725l1.965-1.978c0.041-0.041,0.113-0.035,0.159,0.01
					c0.052,0.045,0.055,0.118,0.013,0.163l-1.966,1.979c-0.04,0.041-0.113,0.037-0.161-0.01
					C16.333,32.84,16.328,32.768,16.369,32.725z"/>
				<path fill="#FFFF00" stroke="#000000" stroke-width="0.0859" d="M16.583,32.855l1.879-1.893c0.04-0.038,0.111-0.035,0.156,0.014
					c0.049,0.047,0.054,0.117,0.016,0.156l-1.88,1.895c-0.04,0.039-0.11,0.035-0.158-0.014
					C16.548,32.966,16.543,32.896,16.583,32.855z"/>
				<path fill="#FFFF00" stroke="#000000" stroke-width="0.0859" d="M15.9,30.964l0.146-0.149l0.108,0.105l0.107-0.107l-0.107-0.108
					l0.15-0.149l0.108,0.104l0.108-0.108l-0.108-0.107l0.153-0.153l0.245,0.242c0.038,0.038,0.032,0.096-0.003,0.131l-0.534,0.536
					c-0.037,0.035-0.098,0.041-0.134,0.006L15.9,30.964L15.9,30.964L15.9,30.964z"/>
				<path fill="#FFFF00" stroke="#000000" stroke-width="0.0859" d="M16.787,30.729l0.819,0.746l-0.522,0.523l-0.751-0.816
					L16.787,30.729"/>
				<path id="cp1_4_" fill="#FFFF00" stroke="#000000" stroke-width="0.0859" d="M16.516,31.729l0.439,0.405l-0.5,0.501
					l-0.411-0.438L16.516,31.729L16.516,31.729L16.516,31.729z"/>
				<g>
					<path id="cp1_5_" fill="#FFFF00" stroke="#000000" stroke-width="0.0859" d="M17.798,30.438l0.442,0.401l-0.499,0.504
						l-0.408-0.437L17.798,30.438L17.798,30.438L17.798,30.438z"/>
				</g>
				<path id="cp2_4_" fill="#FFFF00" stroke="#000000" stroke-width="0.0859" d="M15.646,31.988l0.146-0.146l0.105,0.104
					l0.106-0.104l-0.106-0.107l0.146-0.147l0.108,0.103l0.107-0.103l-0.11-0.108l0.149-0.148l0.244,0.242
					c0.037,0.037,0.033,0.093-0.001,0.128l-0.521,0.524c-0.036,0.035-0.097,0.039-0.134,0.004L15.646,31.988L15.646,31.988
					L15.646,31.988z"/>
				<g>
					<path id="cp2_5_" fill="#FFFF00" stroke="#000000" stroke-width="0.0859" d="M16.931,30.695l0.146-0.144l0.106,0.103
						l0.105-0.104l-0.108-0.108l0.146-0.149l0.11,0.108l0.106-0.108l-0.108-0.108l0.15-0.146l0.243,0.241
						c0.037,0.035,0.034,0.094-0.001,0.129l-0.523,0.521c-0.035,0.039-0.096,0.043-0.131,0.008L16.931,30.695L16.931,30.695
						L16.931,30.695z"/>
				</g>
				<path d="M16.757,31.251c-0.078-0.069,0.03-0.183,0.104-0.103l0.188,0.186l-0.104,0.105L16.757,31.251"/>
				<path id="cp3_4_" d="M16.386,32.17c-0.077-0.072,0.025-0.176,0.1-0.1l0.144,0.141l-0.099,0.104L16.386,32.17"/>
				<path id="cp3_5_" d="M17.677,30.881c-0.075-0.068,0.025-0.175,0.103-0.099l0.144,0.144l-0.099,0.1L17.677,30.881"/>
			</g>
		</g>
		<g>
			<g id="castle_3_">
				<path fill="#FFFF00" d="M22.738,17.15c0.026-0.95,0.699-1.177,0.702-1.18c0.006-0.003,0.726,0.242,0.723,1.187L22.738,17.15"/>
				<path fill="#FFFF00" stroke="#000000" stroke-width="0.0859" d="M22.158,15.993l-0.116,1.088l0.711,0.003
					c0.008-0.903,0.685-1.053,0.7-1.05c0.016-0.003,0.683,0.198,0.701,1.05h0.715l-0.131-1.098L22.158,15.993L22.158,15.993
					L22.158,15.993z"/>
				<path fill="#FFFF00" stroke="#000000" stroke-width="0.0859" d="M21.994,17.087h2.908c0.06,0,0.11,0.061,0.11,0.134
					c0,0.073-0.051,0.134-0.11,0.134h-2.908c-0.061,0-0.11-0.061-0.11-0.134C21.884,17.148,21.934,17.087,21.994,17.087z"/>
				<path fill="#FFFF00" stroke="#000000" stroke-width="0.0859" d="M23.051,17.081c0.004-0.571,0.387-0.73,0.39-0.73
					c0,0,0.401,0.165,0.405,0.73H23.051"/>
				<path fill="#FFFF00" stroke="#000000" stroke-width="0.0859" d="M22.056,15.54h2.788c0.059,0,0.105,0.055,0.105,0.121
					c0,0.063-0.047,0.118-0.105,0.118h-2.788c-0.059,0-0.104-0.051-0.104-0.118C21.951,15.595,21.997,15.54,22.056,15.54z"/>
				<path fill="#FFFF00" stroke="#000000" stroke-width="0.0859" d="M22.115,15.782h2.666c0.056,0,0.104,0.055,0.104,0.118
					c0,0.067-0.046,0.121-0.104,0.121h-2.666c-0.058,0-0.104-0.054-0.104-0.121C22.012,15.837,22.058,15.782,22.115,15.782z"/>
				<path fill="#FFFF00" stroke="#000000" stroke-width="0.0859" d="M22.975,13.965h0.211v0.149h0.154v-0.153h0.217v0.153h0.155
					v-0.153h0.217l-0.004,0.345c0,0.058-0.041,0.093-0.094,0.093h-0.756c-0.051,0-0.101-0.042-0.101-0.093L22.975,13.965
					L22.975,13.965L22.975,13.965z"/>
				<path fill="#FFFF00" stroke="#000000" stroke-width="0.0859" d="M23.769,14.427l0.048,1.107l-0.738-0.004l0.047-1.106
					L23.769,14.427"/>
				<path id="cp1_6_" fill="#FFFF00" stroke="#000000" stroke-width="0.0859" d="M22.868,14.94l0.023,0.597h-0.71l0.02-0.597H22.868
					L22.868,14.94L22.868,14.94z"/>
				<g>
					<path id="cp1_7_" fill="#FFFF00" stroke="#000000" stroke-width="0.0859" d="M24.688,14.94l0.023,0.597h-0.709l0.021-0.597
						H24.688L24.688,14.94L24.688,14.94z"/>
				</g>
				<path id="cp2_6_" fill="#FFFF00" stroke="#000000" stroke-width="0.0859" d="M22.072,14.507h0.207v0.149h0.15v-0.152l0.21,0.003
					v0.149h0.151v-0.152h0.212v0.348c0,0.051-0.044,0.089-0.092,0.089h-0.743c-0.048,0-0.096-0.041-0.096-0.093L22.072,14.507
					L22.072,14.507L22.072,14.507z"/>
				<g>
					<path id="cp2_7_" fill="#FFFF00" stroke="#000000" stroke-width="0.0859" d="M23.892,14.507h0.207v0.149h0.15v-0.152
						l0.212,0.003v0.149h0.15v-0.152h0.21v0.348c0,0.051-0.041,0.089-0.093,0.089h-0.739c-0.048,0-0.098-0.041-0.098-0.093
						L23.892,14.507L23.892,14.507L23.892,14.507z"/>
				</g>
				<path d="M23.377,14.777c-0.004-0.108,0.149-0.108,0.149,0v0.262h-0.149V14.777"/>
				<path id="cp3_6_" d="M22.461,15.157c0-0.102,0.144-0.105,0.143,0v0.204h-0.143V15.157"/>
				<g>
					<path id="cp3_7_" d="M24.287,15.157c0-0.102,0.144-0.105,0.142,0v0.204h-0.142V15.157"/>
				</g>
			</g>
			<g>
				<g>
					<g id="castle_4_">
						<path fill="#FFFF00" d="M31.956,17.15c-0.022-0.95-0.694-1.177-0.7-1.18c-0.005-0.003-0.727,0.242-0.723,1.187L31.956,17.15"
							/>
						<path fill="#FFFF00" stroke="#000000" stroke-width="0.0859" d="M32.537,15.993l0.113,1.088l-0.707,0.003
							c-0.008-0.903-0.684-1.053-0.7-1.05c-0.017-0.003-0.687,0.198-0.703,1.05h-0.715l0.13-1.098L32.537,15.993L32.537,15.993
							L32.537,15.993z"/>
						<path fill="#FFFF00" stroke="#000000" stroke-width="0.0859" d="M32.702,17.087h-2.908c-0.062,0-0.11,0.061-0.11,0.134
							c0,0.073,0.051,0.134,0.11,0.134h2.908c0.062,0,0.11-0.061,0.11-0.134C32.813,17.148,32.764,17.087,32.702,17.087z"/>
						<path fill="#FFFF00" stroke="#000000" stroke-width="0.0859" d="M31.645,17.081c-0.002-0.571-0.389-0.73-0.39-0.73
							c0,0-0.401,0.165-0.407,0.73H31.645"/>
						<path fill="#FFFF00" stroke="#000000" stroke-width="0.0859" d="M32.639,15.54h-2.787c-0.061,0-0.106,0.055-0.106,0.121
							c0,0.063,0.047,0.118,0.106,0.118h2.787c0.062,0,0.106-0.051,0.106-0.118C32.745,15.595,32.699,15.54,32.639,15.54z"/>
						<path fill="#FFFF00" stroke="#000000" stroke-width="0.0859" d="M32.581,15.782h-2.666c-0.058,0-0.104,0.055-0.104,0.118
							c0,0.067,0.047,0.121,0.104,0.121h2.666c0.056,0,0.103-0.054,0.103-0.121C32.684,15.837,32.637,15.782,32.581,15.782z"/>
						<path fill="#FFFF00" stroke="#000000" stroke-width="0.0859" d="M31.721,13.965H31.51v0.149h-0.156v-0.153h-0.213v0.153
							h-0.156v-0.153H30.77v0.345c0,0.058,0.043,0.093,0.097,0.093h0.756c0.051,0,0.099-0.042,0.099-0.093V13.965L31.721,13.965
							L31.721,13.965z"/>
						<path fill="#FFFF00" stroke="#000000" stroke-width="0.0859" d="M30.926,14.427l-0.045,1.107l0.737-0.004l-0.048-1.106
							L30.926,14.427"/>
						<path id="cp1_8_" fill="#FFFF00" stroke="#000000" stroke-width="0.0859" d="M31.828,14.94l-0.025,0.597h0.713l-0.022-0.597
							H31.828L31.828,14.94L31.828,14.94z"/>
						<g>
							<path id="cp1_9_" fill="#FFFF00" stroke="#000000" stroke-width="0.0859" d="M30.008,14.94l-0.025,0.597h0.711l-0.021-0.597
								H30.008L30.008,14.94L30.008,14.94z"/>
						</g>
						<path id="cp2_8_" fill="#FFFF00" stroke="#000000" stroke-width="0.0859" d="M32.626,14.507h-0.207v0.149H32.27v-0.152
							l-0.213,0.003v0.149h-0.15v-0.152h-0.211v0.348c0,0.051,0.041,0.089,0.093,0.089h0.739c0.052,0,0.1-0.041,0.1-0.093
							L32.626,14.507L32.626,14.507L32.626,14.507z"/>
						<g>
							<path id="cp2_9_" fill="#FFFF00" stroke="#000000" stroke-width="0.0859" d="M30.802,14.507h-0.204v0.149h-0.152v-0.152
								l-0.209,0.003v0.149h-0.149v-0.152h-0.213v0.348c0,0.051,0.042,0.089,0.093,0.089h0.741c0.05,0,0.099-0.041,0.099-0.093
								v-0.341H30.802L30.802,14.507z"/>
						</g>
						<path d="M31.32,14.777c0.004-0.108-0.152-0.108-0.148,0v0.262h0.148V14.777"/>
						<path id="cp3_8_" d="M32.232,15.157c0-0.102-0.144-0.105-0.144,0v0.204h0.144V15.157"/>
						<g>
							<path id="cp3_9_" d="M30.406,15.157c0.003-0.102-0.145-0.105-0.141,0v0.204h0.141V15.157"/>
						</g>
					</g>
					<g>
						<g id="castle_5_">
							<path fill="#FFFF00" d="M31.956,25.099c-0.022-0.947-0.694-1.17-0.7-1.174c-0.005-0.006-0.727,0.239-0.723,1.184
								L31.956,25.099"/>
							<path fill="#FFFF00" stroke="#000000" stroke-width="0.0859" d="M32.537,23.944l0.113,1.088l-0.707,0.003
								c-0.008-0.902-0.684-1.053-0.7-1.05c-0.017-0.003-0.687,0.198-0.703,1.05h-0.715l0.13-1.101L32.537,23.944L32.537,23.944
								L32.537,23.944z"/>
							<path fill="#FFFF00" stroke="#000000" stroke-width="0.0859" d="M32.702,25.035h-2.908c-0.062,0-0.11,0.061-0.11,0.137
								c0,0.073,0.051,0.134,0.11,0.134h2.908c0.062,0,0.11-0.061,0.11-0.134C32.813,25.096,32.764,25.035,32.702,25.035z"/>
							<path fill="#FFFF00" stroke="#000000" stroke-width="0.0859" d="M31.645,25.028c-0.002-0.567-0.389-0.727-0.39-0.727
								c0,0-0.401,0.166-0.407,0.727H31.645"/>
							<path fill="#FFFF00" stroke="#000000" stroke-width="0.0859" d="M32.639,23.491h-2.787c-0.061,0-0.106,0.055-0.106,0.121
								c0,0.064,0.047,0.118,0.106,0.118h2.787c0.062,0,0.106-0.051,0.106-0.118C32.745,23.546,32.699,23.491,32.639,23.491z"/>
							<path fill="#FFFF00" stroke="#000000" stroke-width="0.0859" d="M32.581,23.73h-2.666c-0.058,0-0.104,0.058-0.104,0.121
								c0,0.067,0.047,0.121,0.104,0.121h2.666c0.056,0,0.103-0.054,0.103-0.121C32.684,23.788,32.637,23.73,32.581,23.73z"/>
							<path fill="#FFFF00" stroke="#000000" stroke-width="0.0859" d="M31.721,21.916H31.51v0.149h-0.156v-0.152h-0.213v0.152
								h-0.156v-0.152H30.77v0.344c0,0.055,0.043,0.09,0.097,0.09h0.756c0.051,0,0.099-0.039,0.099-0.09V21.916L31.721,21.916
								L31.721,21.916z"/>
							<path fill="#FFFF00" stroke="#000000" stroke-width="0.0859" d="M30.926,22.375l-0.045,1.11l0.737-0.004l-0.048-1.109
								L30.926,22.375"/>
							<path id="cp1_10_" fill="#FFFF00" stroke="#000000" stroke-width="0.0859" d="M31.828,22.892l-0.025,0.597h0.713
								l-0.022-0.597H31.828L31.828,22.892L31.828,22.892z"/>
							<g>
								<path id="cp1_11_" fill="#FFFF00" stroke="#000000" stroke-width="0.0859" d="M30.008,22.892l-0.025,0.597h0.711
									l-0.021-0.597H30.008L30.008,22.892L30.008,22.892z"/>
							</g>
							<path id="cp2_10_" fill="#FFFF00" stroke="#000000" stroke-width="0.0859" d="M32.626,22.458h-0.207v0.149H32.27v-0.152
								h-0.213v0.152h-0.15v-0.152h-0.211v0.344c0,0.058,0.041,0.09,0.093,0.09h0.739c0.052,0,0.1-0.038,0.1-0.09L32.626,22.458
								L32.626,22.458L32.626,22.458z"/>
							<g>
								<path id="cp2_11_" fill="#FFFF00" stroke="#000000" stroke-width="0.0859" d="M30.802,22.458h-0.204v0.149h-0.152v-0.152
									h-0.211v0.152h-0.149v-0.152h-0.212v0.344c0,0.058,0.043,0.09,0.093,0.09h0.741c0.05,0,0.096-0.038,0.096-0.09
									L30.802,22.458L30.802,22.458L30.802,22.458z"/>
							</g>
							<path d="M31.32,22.729c0.004-0.108-0.152-0.112-0.148,0v0.261h0.148V22.729"/>
							<path id="cp3_10_" d="M32.232,23.108c0-0.102-0.144-0.105-0.144,0v0.204h0.144V23.108"/>
							<g>
								<path id="cp3_11_" d="M30.406,23.108c0.003-0.102-0.145-0.105-0.141,0v0.204h0.141V23.108"/>
							</g>
						</g>
						<g id="castle3_1_">
							<g id="castle_6_">
								<path fill="#FFFF00" d="M28.855,33.376c0.653-0.683,0.344-1.321,0.342-1.324c-0.002-0.006-0.684-0.348-1.352,0.319
									L28.855,33.376"/>
								<path fill="#FFFF00" stroke="#000000" stroke-width="0.0859" d="M30.087,32.975l-0.69,0.852l-0.506-0.508
									c0.639-0.642,0.27-1.225,0.254-1.233c-0.011-0.01-0.625-0.345-1.238,0.239l-0.504-0.508l0.871-0.683L30.087,32.975
									L30.087,32.975L30.087,32.975z"/>
								<path fill="#FFFF00" stroke="#000000" stroke-width="0.0859" d="M29.427,33.859l-2.049-2.063
									c-0.043-0.045-0.123-0.038-0.174,0.014c-0.054,0.054-0.06,0.131-0.017,0.176l2.047,2.063
									c0.043,0.044,0.121,0.038,0.175-0.013C29.462,33.98,29.471,33.904,29.427,33.859z"/>
								<path fill="#FFFF00" stroke="#000000" stroke-width="0.0859" d="M28.688,33.104c0.398-0.401,0.242-0.785,0.24-0.787
									c0,0-0.4-0.17-0.804,0.227L28.688,33.104"/>
								<path fill="#FFFF00" stroke="#000000" stroke-width="0.0859" d="M30.48,32.725l-1.967-1.978
									c-0.037-0.041-0.111-0.035-0.162,0.01c-0.045,0.045-0.052,0.118-0.01,0.163l1.965,1.979c0.041,0.041,0.113,0.037,0.162-0.01
									C30.518,32.84,30.523,32.768,30.48,32.725z"/>
								<path fill="#FFFF00" stroke="#000000" stroke-width="0.0859" d="M30.266,32.855l-1.879-1.893
									c-0.037-0.038-0.111-0.035-0.158,0.014c-0.047,0.047-0.054,0.117-0.014,0.156l1.879,1.895
									c0.038,0.039,0.108,0.035,0.159-0.014C30.299,32.967,30.307,32.896,30.266,32.855z"/>
								<path fill="#FFFF00" stroke="#000000" stroke-width="0.0859" d="M30.948,30.964l-0.149-0.149l-0.104,0.105l-0.109-0.107
									l0.109-0.108l-0.151-0.149l-0.108,0.104l-0.107-0.108l0.107-0.107l-0.152-0.153l-0.245,0.242
									c-0.035,0.038-0.032,0.096,0.007,0.131l0.53,0.536c0.034,0.035,0.098,0.041,0.134,0.006L30.948,30.964L30.948,30.964
									L30.948,30.964z"/>
								<path fill="#FFFF00" stroke="#000000" stroke-width="0.0859" d="M30.063,30.729l-0.819,0.746l0.522,0.523l0.75-0.816
									L30.063,30.729"/>
								<path id="cp1_12_" fill="#FFFF00" stroke="#000000" stroke-width="0.0859" d="M30.333,31.729l-0.44,0.405l0.498,0.501
									l0.411-0.438L30.333,31.729L30.333,31.729L30.333,31.729z"/>
								<g>
									<path id="cp1_13_" fill="#FFFF00" stroke="#000000" stroke-width="0.0859" d="M29.051,30.438l-0.439,0.401l0.498,0.504
										l0.41-0.437L29.051,30.438L29.051,30.438L29.051,30.438z"/>
								</g>
								<path id="cp2_12_" fill="#FFFF00" stroke="#000000" stroke-width="0.0859" d="M31.203,31.988l-0.146-0.146l-0.104,0.104
									l-0.104-0.104l0.106-0.107l-0.147-0.147l-0.108,0.103l-0.105-0.103l0.107-0.108l-0.148-0.148l-0.243,0.242
									c-0.041,0.037-0.033,0.093,0.002,0.128l0.521,0.524c0.032,0.035,0.097,0.039,0.132,0.004L31.203,31.988L31.203,31.988
									L31.203,31.988z"/>
								<g>
									<path id="cp2_13_" fill="#FFFF00" stroke="#000000" stroke-width="0.0859" d="M29.918,30.695l-0.146-0.144l-0.104,0.103
										l-0.104-0.104l0.107-0.108l-0.148-0.149L29.414,30.4l-0.105-0.108l0.107-0.108l-0.148-0.146l-0.244,0.241
										c-0.037,0.035-0.035,0.094,0,0.129l0.521,0.521c0.034,0.039,0.098,0.043,0.133,0.008L29.918,30.695L29.918,30.695
										L29.918,30.695z"/>
								</g>
								<path d="M30.091,31.251c0.079-0.069-0.028-0.183-0.103-0.103L29.8,31.334l0.104,0.105L30.091,31.251"/>
								<path id="cp3_12_" d="M30.464,32.17c0.073-0.072-0.026-0.176-0.101-0.1l-0.146,0.141l0.104,0.104L30.464,32.17"/>
								<path id="cp3_13_" d="M29.175,30.881c0.073-0.068-0.026-0.175-0.101-0.099l-0.145,0.144l0.102,0.1L29.175,30.881"/>
							</g>
						</g>
						<g id="quina">
							<path fill="#003399" d="M22.179,25.383L22.179,25.383c0,0.381,0.146,0.729,0.378,0.979c0.234,0.253,0.559,0.408,0.909,0.408
								c0.355,0,0.676-0.155,0.911-0.404c0.234-0.252,0.377-0.598,0.377-0.979v-1.847l-2.572-0.003L22.179,25.383"/>
							<circle fill="#FFFFFF" cx="22.771" cy="24.238" r="0.255"/>
							<circle fill="#FFFFFF" cx="24.196" cy="24.239" r="0.257"/>
							<path fill="#FFFFFF" d="M23.48,24.672c0.14,0,0.253,0.114,0.253,0.255c0,0.141-0.113,0.255-0.253,0.255
								c-0.143,0-0.256-0.114-0.256-0.255C23.224,24.786,23.338,24.672,23.48,24.672z"/>
							<path fill="#FFFFFF" d="M22.771,25.389c0.141,0,0.254,0.112,0.254,0.251c0,0.145-0.113,0.256-0.254,0.256
								s-0.255-0.111-0.255-0.256C22.516,25.501,22.63,25.389,22.771,25.389z"/>
							<circle fill="#FFFFFF" cx="24.196" cy="25.641" r="0.255"/>
						</g>
						<g>
							<g id="quina_1_">
								<path fill="#003399" d="M22.179,20.917L22.179,20.917c0,0.383,0.146,0.728,0.378,0.979c0.234,0.252,0.559,0.408,0.909,0.408
									c0.355,0,0.676-0.156,0.911-0.405c0.234-0.252,0.377-0.596,0.377-0.979v-1.847l-2.572-0.004L22.179,20.917"/>
								<circle fill="#FFFFFF" cx="22.771" cy="19.772" r="0.255"/>
								<circle fill="#FFFFFF" cx="24.196" cy="19.776" r="0.255"/>
								<path fill="#FFFFFF" d="M23.48,20.206c0.14,0,0.253,0.111,0.253,0.252c0,0.144-0.113,0.255-0.253,0.255
									c-0.143,0-0.256-0.111-0.256-0.255C23.225,20.317,23.338,20.206,23.48,20.206z"/>
								<circle fill="#FFFFFF" cx="22.771" cy="21.179" r="0.255"/>
								<circle fill="#FFFFFF" cx="24.196" cy="21.176" r="0.255"/>
							</g>
						</g>
						<g>
							<g id="quina_2_">
								<path fill="#003399" d="M18.608,25.383L18.608,25.383c0,0.381,0.144,0.729,0.38,0.979c0.232,0.253,0.557,0.408,0.908,0.408
									c0.354,0,0.678-0.155,0.909-0.404c0.234-0.252,0.378-0.598,0.378-0.979v-1.847l-2.572-0.003L18.608,25.383"/>
								<circle fill="#FFFFFF" cx="19.198" cy="24.238" r="0.255"/>
								<circle fill="#FFFFFF" cx="20.626" cy="24.239" r="0.257"/>
								<circle fill="#FFFFFF" cx="19.909" cy="24.927" r="0.255"/>
								<path fill="#FFFFFF" d="M19.198,25.389c0.141,0,0.255,0.112,0.255,0.251c0,0.145-0.114,0.256-0.255,0.256
									c-0.141,0-0.255-0.111-0.255-0.256C18.943,25.501,19.058,25.389,19.198,25.389z"/>
								<circle fill="#FFFFFF" cx="20.626" cy="25.641" r="0.255"/>
							</g>
						</g>
						<g>
							<g id="quina_3_">
								<path fill="#003399" d="M25.738,25.383L25.738,25.383c0,0.381,0.148,0.729,0.378,0.979c0.235,0.253,0.56,0.408,0.911,0.408
									c0.357,0,0.679-0.155,0.912-0.404c0.233-0.252,0.377-0.598,0.377-0.979v-1.847l-2.571-0.003L25.738,25.383"/>
								<circle fill="#FFFFFF" cx="26.33" cy="24.238" r="0.255"/>
								<circle fill="#FFFFFF" cx="27.757" cy="24.239" r="0.257"/>
								<circle fill="#FFFFFF" cx="27.041" cy="24.927" r="0.255"/>
								<path fill="#FFFFFF" d="M26.33,25.389c0.141,0,0.255,0.112,0.255,0.251c0,0.145-0.114,0.256-0.255,0.256
									s-0.255-0.111-0.255-0.256C26.075,25.501,26.189,25.389,26.33,25.389z"/>
								<circle fill="#FFFFFF" cx="27.756" cy="25.641" r="0.255"/>
							</g>
						</g>
						<g>
							<g id="quina_4_">
								<path fill="#003399" d="M22.179,29.811L22.179,29.811c0,0.379,0.146,0.728,0.378,0.979c0.234,0.252,0.559,0.408,0.909,0.408
									c0.355,0,0.676-0.156,0.911-0.408c0.234-0.249,0.377-0.594,0.377-0.977v-1.851h-2.572L22.179,29.811"/>
								<circle fill="#FFFFFF" cx="22.771" cy="28.665" r="0.255"/>
								<circle fill="#FFFFFF" cx="24.196" cy="28.665" r="0.255"/>
								<path fill="#FFFFFF" d="M23.48,29.096c0.14,0,0.253,0.114,0.253,0.256c0,0.141-0.113,0.254-0.253,0.254
									c-0.143,0-0.256-0.113-0.256-0.254C23.224,29.21,23.338,29.096,23.48,29.096z"/>
								<path fill="#FFFFFF" d="M22.771,29.813c0.141,0,0.255,0.115,0.255,0.26c0,0.141-0.114,0.255-0.255,0.255
									c-0.144,0-0.259-0.114-0.259-0.255C22.512,29.928,22.627,29.813,22.771,29.813z"/>
								<path fill="#FFFFFF" d="M24.196,29.813c0.141,0,0.255,0.115,0.255,0.256s-0.114,0.256-0.255,0.256
									c-0.144,0-0.259-0.115-0.259-0.256C23.938,29.928,24.053,29.813,24.196,29.813z"/>
							</g>
						</g>
					</g>
				</g>
			</g>
		</g>
	</g>
</g>
<g>
	<g>
		<g>
			<g>
				<defs>
					<circle id="SVGID_1_" cx="25" cy="25" r="24.5"/>
				</defs>
				<clipPath id="SVGID_2_">
					<use xlink:href="#SVGID_1_"  overflow="visible"/>
				</clipPath>
				
					<radialGradient id="circle50_2_" cx="750.7598" cy="1657.9609" r="27.4688" gradientTransform="matrix(1 0 0 1 -725.7598 -1632.9609)" gradientUnits="userSpaceOnUse">
					<stop  offset="0" style="stop-color:#000000;stop-opacity:0"/>
					<stop  offset="0.7576" style="stop-color:#000000;stop-opacity:0"/>
					<stop  offset="1" style="stop-color:#000000"/>
				</radialGradient>
				
					<circle id="circle50_1_" opacity="0.4" clip-path="url(#SVGID_2_)" fill="url(#circle50_2_)" enable-background="new    " cx="25" cy="25" r="27.469"/>
			</g>
		</g>
	</g>
	<g>
		<g>
			<g>
				<defs>
					<circle id="SVGID_3_" cx="25" cy="25" r="24.5"/>
				</defs>
				<clipPath id="SVGID_4_">
					<use xlink:href="#SVGID_3_"  overflow="visible"/>
				</clipPath>
				
					<radialGradient id="circle50_3_" cx="750.7598" cy="1657.9609" r="31.6777" gradientTransform="matrix(1 0 0 1 -725.7598 -1632.9609)" gradientUnits="userSpaceOnUse">
					<stop  offset="0" style="stop-color:#000000;stop-opacity:0"/>
					<stop  offset="0.5758" style="stop-color:#000000;stop-opacity:0"/>
					<stop  offset="1" style="stop-color:#000000"/>
				</radialGradient>
				
					<circle id="circle50_7_" opacity="0.6" clip-path="url(#SVGID_4_)" fill="url(#circle50_3_)" enable-background="new    " cx="25" cy="25" r="31.678"/>
			</g>
		</g>
	</g>
</g>
<linearGradient id="SVGID_5_" gradientUnits="userSpaceOnUse" x1="750.4824" y1="1663.666" x2="750.4824" y2="1635.6641" gradientTransform="matrix(1 0 0 1 -725.7598 -1632.9609)">
	<stop  offset="0.0727" style="stop-color:#FFFFFF;stop-opacity:0.05"/>
	<stop  offset="0.897" style="stop-color:#FFFFFF;stop-opacity:0.75"/>
	<stop  offset="1" style="stop-color:#FFFFFF;stop-opacity:0.75"/>
</linearGradient>
<ellipse fill="url(#SVGID_5_)" cx="24.723" cy="16.704" rx="17.306" ry="14.001"/>
</svg>
