<?xml version="1.0" encoding="utf-8"?>
<!-- Generator: Adobe Illustrator 15.0.0, SVG Export Plug-In . SVG Version: 6.00 Build 0)  -->
<!DOCTYPE svg PUBLIC "-//W3C//DTD SVG 1.1//EN" "http://www.w3.org/Graphics/SVG/1.1/DTD/svg11.dtd">
<svg version="1.1" id="Laag_1" xmlns="http://www.w3.org/2000/svg" xmlns:xlink="http://www.w3.org/1999/xlink" x="0px" y="0px"
	 width="50px" height="50px" viewBox="0 0 50 50" enable-background="new 0 0 50 50" xml:space="preserve">
<g id="Martinique">
	<path fill="#CE1126" d="M25,2.142c13.525,0,24.49,9.332,24.49,22.858c0,13.525-10.965,24.488-24.49,24.488
		c-7.782,0-14.718-3.629-19.204-9.289C2.487,36.021,3.777,30.742,3.777,25C3.777,11.474,11.476,2.142,25,2.142z"/>
	<path fill="#0038A8" d="M25,0.508c-7.878,0-14.885,3.721-19.364,9.499C2.424,14.149,2.145,19.352,2.145,25H49.49
		C49.49,11.474,38.523,0.508,25,0.508z"/>
	<path fill="#FFFFFF" d="M5.407,10.307C2.333,14.398,0.508,19.485,0.508,25c0,5.516,1.823,10.602,4.899,14.693L25,25L5.407,10.307z"
		/>
	<path fill="#FCD116" d="M16.212,24.177l-0.352-0.35l-2.625,0.522c-0.087-0.438-0.258-0.844-0.498-1.202l2.226-1.487v-0.496
		l-0.02-0.531v-0.612h-0.613l-0.53-0.02h-0.495l-1.488,2.226c-0.358-0.239-0.765-0.411-1.203-0.497l0.522-2.626l-0.35-0.351
		l-0.39-0.362l-0.434-0.433l-0.433,0.433l-0.389,0.362l-0.352,0.351l0.522,2.626c-0.438,0.087-0.844,0.258-1.202,0.498l-1.488-2.227
		H6.13l-0.531,0.02H4.987v0.612l-0.021,0.531v0.496l2.226,1.487c-0.24,0.358-0.411,0.765-0.498,1.202l-2.626-0.522l-0.352,0.35
		l-0.361,0.389L2.923,25l0.434,0.434l0.361,0.389l0.352,0.351l2.626-0.522c0.087,0.438,0.258,0.844,0.498,1.202L4.967,28.34v0.496
		l0.021,0.53v0.613h0.611l0.531,0.019h0.495l1.488-2.227c0.358,0.24,0.764,0.411,1.202,0.498l-0.522,2.626l0.352,0.351l0.389,0.362
		l0.433,0.434l0.434-0.434l0.39-0.362l0.35-0.351l-0.522-2.626c0.438-0.087,0.845-0.258,1.203-0.497l1.488,2.226h0.495l0.53-0.019
		h0.613v-0.613l0.02-0.53V28.34l-2.226-1.487c0.24-0.357,0.411-0.765,0.498-1.202l2.625,0.522l0.352-0.351l0.361-0.389L17.007,25
		l-0.434-0.434L16.212,24.177z"/>
	<polygon fill="#FCD116" points="21.946,24.564 21.921,23.237 21.118,24.295 19.849,23.911 20.606,25 19.849,26.089 21.118,25.705 
		21.921,26.763 21.946,25.436 23.2,25 	"/>
	<polygon fill="#FCD116" points="6.554,35.354 5.989,34.153 5.687,35.444 4.37,35.61 5.505,36.297 5.257,37.601 6.261,36.733 
		7.423,37.373 6.907,36.149 7.875,35.242 	"/>
	<polygon fill="#FCD116" points="5.687,14.43 5.989,15.722 6.554,14.521 7.875,14.633 6.907,13.725 7.423,12.502 6.261,13.142 
		5.257,12.274 5.505,13.578 4.37,14.264 	"/>
</g>
<g>
	<g>
		<g>
			<g>
				<g>
					<g>
						<defs>
							<circle id="SVGID_1_" cx="25" cy="25" r="24.5"/>
						</defs>
						<clipPath id="SVGID_2_">
							<use xlink:href="#SVGID_1_"  overflow="visible"/>
						</clipPath>
						
							<radialGradient id="circle50_2_" cx="992.6797" cy="2202.2813" r="27.4688" gradientTransform="matrix(1 0 0 1 -967.6797 -2177.2813)" gradientUnits="userSpaceOnUse">
							<stop  offset="0" style="stop-color:#000000;stop-opacity:0"/>
							<stop  offset="0.7576" style="stop-color:#000000;stop-opacity:0"/>
							<stop  offset="1" style="stop-color:#000000"/>
						</radialGradient>
						
							<circle id="circle50_1_" opacity="0.4" clip-path="url(#SVGID_2_)" fill="url(#circle50_2_)" enable-background="new    " cx="25" cy="25" r="27.469"/>
					</g>
				</g>
			</g>
		</g>
	</g>
	<g>
		<g>
			<g>
				<g>
					<g>
						<defs>
							<circle id="SVGID_3_" cx="25" cy="25" r="24.5"/>
						</defs>
						<clipPath id="SVGID_4_">
							<use xlink:href="#SVGID_3_"  overflow="visible"/>
						</clipPath>
						
							<radialGradient id="circle50_3_" cx="992.6797" cy="2202.2813" r="31.6777" gradientTransform="matrix(1 0 0 1 -967.6797 -2177.2813)" gradientUnits="userSpaceOnUse">
							<stop  offset="0" style="stop-color:#000000;stop-opacity:0"/>
							<stop  offset="0.5758" style="stop-color:#000000;stop-opacity:0"/>
							<stop  offset="1" style="stop-color:#000000"/>
						</radialGradient>
						
							<circle id="circle50_7_" opacity="0.6" clip-path="url(#SVGID_4_)" fill="url(#circle50_3_)" enable-background="new    " cx="25" cy="25" r="31.678"/>
					</g>
				</g>
			</g>
		</g>
	</g>
</g>
<linearGradient id="SVGID_5_" gradientUnits="userSpaceOnUse" x1="992.4023" y1="2207.9863" x2="992.4023" y2="2179.9844" gradientTransform="matrix(1 0 0 1 -967.6797 -2177.2813)">
	<stop  offset="0.0727" style="stop-color:#FFFFFF;stop-opacity:0.05"/>
	<stop  offset="0.897" style="stop-color:#FFFFFF;stop-opacity:0.75"/>
	<stop  offset="1" style="stop-color:#FFFFFF;stop-opacity:0.75"/>
</linearGradient>
<ellipse fill="url(#SVGID_5_)" cx="24.723" cy="16.704" rx="17.306" ry="14.001"/>
</svg>
