<?xml version="1.0" encoding="utf-8"?>
<!-- Generator: Adobe Illustrator 15.0.0, SVG Export Plug-In . SVG Version: 6.00 Build 0)  -->
<!DOCTYPE svg PUBLIC "-//W3C//DTD SVG 1.1//EN" "http://www.w3.org/Graphics/SVG/1.1/DTD/svg11.dtd">
<svg version="1.1" id="Laag_1" xmlns="http://www.w3.org/2000/svg" xmlns:xlink="http://www.w3.org/1999/xlink" x="0px" y="0px"
	 width="50px" height="50px" viewBox="0 0 50 50" enable-background="new 0 0 50 50" xml:space="preserve">
<g id="Malaysia_1_">
	<circle id="circle50_101_" fill="#FFFFFF" cx="25" cy="25" r="24.495"/>
	<path fill="#CC0000" d="M25.002,0.524c-4.479,0-8.669,1.209-12.278,3.304h24.551C33.666,1.733,29.477,0.524,25.002,0.524z"/>
	<path fill="#CC0000" d="M0.527,24.995c0,0.024,0.001,0.048,0.001,0.07h48.943c0-0.024,0-0.046,0-0.07
		c0-1.207-0.093-2.398-0.259-3.563H0.789C0.621,22.599,0.527,23.788,0.527,24.995z"/>
	<path fill="#CC0000" d="M4.996,10.909h40.01c-0.928-1.313-1.979-2.529-3.139-3.633H8.134C6.973,8.378,5.921,9.597,4.996,10.909z"/>
	<path fill="#CC0000" d="M1.551,17.988h46.898c-0.375-1.255-0.846-2.471-1.408-3.635H2.959C2.396,15.518,1.928,16.733,1.551,17.988z
		"/>
	<path fill="#000066" d="M26.357,0.561l-1.355-0.036c-13.518,0-24.474,10.955-24.474,24.471c0,1.834,0.208,3.615,0.59,5.335h25.237
		V0.561H26.357z"/>
	<path fill="#CC0000" d="M49.215,28.514H0.784c0.179,1.243,0.451,2.457,0.809,3.635H48.41
		C48.768,30.971,49.039,29.757,49.215,28.514z"/>
	<path fill="#CC0000" d="M5.097,39.225h39.805c0.818-1.142,1.547-2.354,2.162-3.633H2.935C3.55,36.868,4.277,38.083,5.097,39.225z"
		/>
	<path fill="#CC0000" d="M12.971,46.307h24.058c1.779-1.006,3.42-2.229,4.889-3.636H8.083C9.55,44.073,11.191,45.298,12.971,46.307z
		"/>
	<path fill="#FFCC00" d="M11.165,22.353c-3.138-1.396-4.556-5.069-3.163-8.209c1.393-3.139,5.069-4.557,8.209-3.164
		c-2.44-1.748-5.722-1.748-8.16,0c-3.139,2.251-3.859,6.624-1.607,9.766c2.255,3.141,6.627,3.859,9.767,1.607
		C14.606,23.064,12.772,23.064,11.165,22.353z"/>
	<polygon fill="#FFCC00" points="21.226,15.655 23.683,13.03 20.583,14.843 21.66,11.41 19.646,14.392 19.127,10.832 18.607,14.392 
		16.597,11.41 17.674,14.843 14.568,13.03 17.026,15.655 13.443,15.368 16.795,16.666 13.443,17.963 17.026,17.674 14.568,20.301 
		17.674,18.487 16.597,21.919 18.607,18.938 19.127,22.496 19.646,18.938 21.66,21.919 20.583,18.487 23.683,20.301 21.226,17.674 
		24.811,17.963 21.458,16.666 24.811,15.368 	"/>
</g>
<g>
	<g>
		<g>
			<g>
				<defs>
					<circle id="SVGID_1_" cx="25" cy="25" r="24.5"/>
				</defs>
				<clipPath id="SVGID_2_">
					<use xlink:href="#SVGID_1_"  overflow="visible"/>
				</clipPath>
				
					<radialGradient id="circle50_2_" cx="750.7598" cy="1657.9609" r="27.4688" gradientTransform="matrix(1 0 0 1 -725.7598 -1632.9609)" gradientUnits="userSpaceOnUse">
					<stop  offset="0" style="stop-color:#000000;stop-opacity:0"/>
					<stop  offset="0.7576" style="stop-color:#000000;stop-opacity:0"/>
					<stop  offset="1" style="stop-color:#000000"/>
				</radialGradient>
				
					<circle id="circle50_1_" opacity="0.4" clip-path="url(#SVGID_2_)" fill="url(#circle50_2_)" enable-background="new    " cx="25" cy="25" r="27.469"/>
			</g>
		</g>
	</g>
	<g>
		<g>
			<g>
				<defs>
					<circle id="SVGID_3_" cx="25" cy="25" r="24.5"/>
				</defs>
				<clipPath id="SVGID_4_">
					<use xlink:href="#SVGID_3_"  overflow="visible"/>
				</clipPath>
				
					<radialGradient id="circle50_3_" cx="750.7598" cy="1657.9609" r="31.6777" gradientTransform="matrix(1 0 0 1 -725.7598 -1632.9609)" gradientUnits="userSpaceOnUse">
					<stop  offset="0" style="stop-color:#000000;stop-opacity:0"/>
					<stop  offset="0.5758" style="stop-color:#000000;stop-opacity:0"/>
					<stop  offset="1" style="stop-color:#000000"/>
				</radialGradient>
				
					<circle id="circle50_7_" opacity="0.6" clip-path="url(#SVGID_4_)" fill="url(#circle50_3_)" enable-background="new    " cx="25" cy="25" r="31.678"/>
			</g>
		</g>
	</g>
</g>
<linearGradient id="SVGID_5_" gradientUnits="userSpaceOnUse" x1="750.4824" y1="1663.666" x2="750.4824" y2="1635.6641" gradientTransform="matrix(1 0 0 1 -725.7598 -1632.9609)">
	<stop  offset="0.0727" style="stop-color:#FFFFFF;stop-opacity:0.05"/>
	<stop  offset="0.897" style="stop-color:#FFFFFF;stop-opacity:0.75"/>
	<stop  offset="1" style="stop-color:#FFFFFF;stop-opacity:0.75"/>
</linearGradient>
<ellipse fill="url(#SVGID_5_)" cx="24.723" cy="16.704" rx="17.306" ry="14.001"/>
</svg>
