<?xml version="1.0" encoding="utf-8"?>
<!-- Generator: Adobe Illustrator 15.0.0, SVG Export Plug-In . SVG Version: 6.00 Build 0)  -->
<!DOCTYPE svg PUBLIC "-//W3C//DTD SVG 1.1//EN" "http://www.w3.org/Graphics/SVG/1.1/DTD/svg11.dtd">
<svg version="1.1" id="Laag_1" xmlns="http://www.w3.org/2000/svg" xmlns:xlink="http://www.w3.org/1999/xlink" x="0px" y="0px"
	 width="50px" height="50px" viewBox="0 0 50 50" enable-background="new 0 0 50 50" xml:space="preserve">
<g id="United_Kingdom">
	<g>
		<g>
			<defs>
				<circle id="SVGID_1_" cx="24.999" cy="25" r="24.469"/>
			</defs>
			<clipPath id="SVGID_2_">
				<use xlink:href="#SVGID_1_"  overflow="visible"/>
			</clipPath>
			<rect x="-1.392" y="0.14" clip-path="url(#SVGID_2_)" fill="#00247D" width="52.783" height="49.721"/>
		</g>
	</g>
	<g>
		<g>
			<defs>
				<circle id="SVGID_3_" cx="24.999" cy="25" r="24.469"/>
			</defs>
			<clipPath id="SVGID_4_">
				<use xlink:href="#SVGID_3_"  overflow="visible"/>
			</clipPath>
			<polygon clip-path="url(#SVGID_4_)" fill="#FFFFFF" points="45.398,46.783 51.391,46.783 51.391,41.088 31.445,24.598 
				51.391,8.077 51.391,3.216 44.123,3.216 24.369,19.582 4.521,3.216 -1.392,3.216 -1.392,8.986 18.506,25.389 -1.392,41.879 
				-1.392,46.783 5.553,46.783 25.449,30.295 			"/>
		</g>
	</g>
	<g>
		<g>
			<defs>
				<circle id="SVGID_5_" cx="24.999" cy="25" r="24.469"/>
			</defs>
			<clipPath id="SVGID_6_">
				<use xlink:href="#SVGID_5_"  overflow="visible"/>
			</clipPath>
			<polygon clip-path="url(#SVGID_6_)" fill="#FFFFFF" points="30.447,0.14 19.552,0.14 19.552,19.554 -1.392,19.554 -1.392,30.447 
				19.552,30.447 19.552,49.861 30.447,49.861 30.447,30.447 51.391,30.447 51.391,19.554 30.447,19.554 			"/>
		</g>
	</g>
	<g>
		<g>
			<defs>
				<circle id="SVGID_7_" cx="24.999" cy="25" r="24.469"/>
			</defs>
			<clipPath id="SVGID_8_">
				<use xlink:href="#SVGID_7_"  overflow="visible"/>
			</clipPath>
			<polygon clip-path="url(#SVGID_8_)" fill="#CF142B" points="28.77,0.14 21.228,0.14 21.228,21.23 -1.392,21.23 -1.392,28.77 
				21.228,28.77 21.228,49.861 28.77,49.861 28.77,28.77 51.391,28.77 51.391,21.23 28.77,21.23 			"/>
		</g>
	</g>
	<g>
		<g>
			<defs>
				<circle id="SVGID_9_" cx="24.999" cy="25" r="24.469"/>
			</defs>
			<clipPath id="SVGID_10_">
				<use xlink:href="#SVGID_9_"  overflow="visible"/>
			</clipPath>
			<polygon clip-path="url(#SVGID_10_)" fill="#CF142B" points="51.391,46.783 51.391,42.439 36.859,30.447 31.744,30.447 			"/>
		</g>
	</g>
	<g>
		<g>
			<defs>
				<circle id="SVGID_11_" cx="24.999" cy="25" r="24.469"/>
			</defs>
			<clipPath id="SVGID_12_">
				<use xlink:href="#SVGID_11_"  overflow="visible"/>
			</clipPath>
			<polygon clip-path="url(#SVGID_12_)" fill="#CF142B" points="-1.392,3.216 -1.392,7.563 13.135,19.552 18.34,19.552 			"/>
		</g>
	</g>
	<g>
		<g>
			<defs>
				<circle id="SVGID_13_" cx="24.999" cy="25" r="24.469"/>
			</defs>
			<clipPath id="SVGID_14_">
				<use xlink:href="#SVGID_13_"  overflow="visible"/>
			</clipPath>
			<polygon clip-path="url(#SVGID_14_)" fill="#CF142B" points="51.391,3.216 46.126,3.216 30.447,16.123 30.447,19.554 
				31.561,19.554 			"/>
		</g>
	</g>
	<g>
		<g>
			<defs>
				<circle id="SVGID_15_" cx="24.999" cy="25" r="24.469"/>
			</defs>
			<clipPath id="SVGID_16_">
				<use xlink:href="#SVGID_15_"  overflow="visible"/>
			</clipPath>
			<polygon clip-path="url(#SVGID_16_)" fill="#CF142B" points="18.402,30.447 -1.392,46.783 3.872,46.783 19.552,33.842 
				19.552,30.447 			"/>
		</g>
	</g>
</g>
<g>
	<g>
		<g>
			<g>
				<defs>
					<circle id="SVGID_17_" cx="25" cy="25" r="24.5"/>
				</defs>
				<clipPath id="SVGID_18_">
					<use xlink:href="#SVGID_17_"  overflow="visible"/>
				</clipPath>
				
					<radialGradient id="circle50_2_" cx="750.7598" cy="1657.9609" r="27.4688" gradientTransform="matrix(1 0 0 1 -725.7598 -1632.9609)" gradientUnits="userSpaceOnUse">
					<stop  offset="0" style="stop-color:#000000;stop-opacity:0"/>
					<stop  offset="0.7576" style="stop-color:#000000;stop-opacity:0"/>
					<stop  offset="1" style="stop-color:#000000"/>
				</radialGradient>
				
					<circle id="circle50_1_" opacity="0.4" clip-path="url(#SVGID_18_)" fill="url(#circle50_2_)" enable-background="new    " cx="25" cy="25" r="27.469"/>
			</g>
		</g>
	</g>
	<g>
		<g>
			<g>
				<defs>
					<circle id="SVGID_19_" cx="25" cy="25" r="24.5"/>
				</defs>
				<clipPath id="SVGID_20_">
					<use xlink:href="#SVGID_19_"  overflow="visible"/>
				</clipPath>
				
					<radialGradient id="circle50_3_" cx="750.7598" cy="1657.9609" r="31.6777" gradientTransform="matrix(1 0 0 1 -725.7598 -1632.9609)" gradientUnits="userSpaceOnUse">
					<stop  offset="0" style="stop-color:#000000;stop-opacity:0"/>
					<stop  offset="0.5758" style="stop-color:#000000;stop-opacity:0"/>
					<stop  offset="1" style="stop-color:#000000"/>
				</radialGradient>
				
					<circle id="circle50_7_" opacity="0.6" clip-path="url(#SVGID_20_)" fill="url(#circle50_3_)" enable-background="new    " cx="25" cy="25" r="31.678"/>
			</g>
		</g>
	</g>
</g>
<linearGradient id="SVGID_21_" gradientUnits="userSpaceOnUse" x1="750.4824" y1="1663.666" x2="750.4824" y2="1635.6641" gradientTransform="matrix(1 0 0 1 -725.7598 -1632.9609)">
	<stop  offset="0.0727" style="stop-color:#FFFFFF;stop-opacity:0.05"/>
	<stop  offset="0.897" style="stop-color:#FFFFFF;stop-opacity:0.75"/>
	<stop  offset="1" style="stop-color:#FFFFFF;stop-opacity:0.75"/>
</linearGradient>
<ellipse fill="url(#SVGID_21_)" cx="24.723" cy="16.704" rx="17.306" ry="14.001"/>
</svg>
